<?xml version="1.0" encoding="UTF-8"?>
<svg width="342px" height="376px" viewBox="0 0 342 376" version="1.1" xmlns="http://www.w3.org/2000/svg" xmlns:xlink="http://www.w3.org/1999/xlink">
    <!-- Generator: Sketch 44.1 (41455) - http://www.bohemiancoding.com/sketch -->
    <title>Scissors</title>
    <desc>Created with Sketch.</desc>
    <defs></defs>
    <g id="Page-1" stroke="none" stroke-width="1" fill="none" fill-rule="evenodd">
        <path d="M282.304572,9.28727457 C285.291407,9.77343155 288.149973,9.72923546 290.88027,10.988824 C293.555595,12.0937262 296.23092,12.8450597 298.57641,14.2151384 C303.230742,17.1099822 307.207081,20.004826 310.138943,23.5405131 C313.327344,26.5679451 314.68333,29.7058674 316.020993,31.7388875 C317.285358,33.8602997 318,34.9652019 318,34.9652019 C318,34.9652019 316.882227,34.4127508 314.958192,33.3299467 C313.034158,32.3797308 310.230564,30.2583185 306.858922,29.7942596 C304.495108,28.976632 301.691514,28.7556515 298.759651,28.7556515 C297.861768,28.7556515 296.908913,28.7777496 296.01103,28.7998476 C294.086995,28.976632 292.034691,29.7058674 290.183953,30.1478283 C288.296566,30.3688087 286.500801,31.8714757 284.778331,32.6449073 C281.370041,34.5895352 278.364882,37.1308103 276.330902,40.1582423 C275.909447,40.7106934 275.652909,41.2410465 275.286426,41.8376937 C283.550614,52.3784608 288.699698,66.477013 288.699698,82.1445263 C288.699698,114.650749 266.802348,141.102108 239.847536,141.102108 C223.209215,141.102108 208.568226,131.003302 199.73599,115.689357 L169.372887,173.696723 C200.743818,216.124968 228.376623,269.77902 228.376623,269.77902 C247.378758,301.357125 213.918876,357 213.918876,357 L148.831525,212.876556 L83.7624978,357 C83.7624978,357 50.3026152,301.312929 69.30475,269.77902 C69.30475,269.77902 96.9192315,216.124968 128.308486,173.696723 L97.9637075,115.689357 C89.1314713,131.003302 74.4538338,141.102108 57.8704857,141.102108 C30.8973492,141.102108 9,114.650749 9,82.1445263 C9,49.6824994 30.8973492,23.2311405 57.8704857,23.2311405 C74.8203167,23.2311405 89.7361679,33.7277115 98.5134318,49.5941072 C116.012987,81.1501143 130.379114,119.335535 148.868173,145.367031 C167.338908,119.335535 181.705035,81.1501143 199.186266,49.5499111 C207.981854,33.7056134 222.916029,23.2311405 239.884184,23.2311405 C241.038605,23.2311405 242.138054,23.5405131 243.292475,23.6289053 C244.978296,22.4577089 246.902331,21.0876302 249.266145,19.4744729 C251.410069,18.0381001 253.810532,16.3807468 256.284291,14.8117856 C258.703078,13.2207264 261.726561,12.4472949 264.511831,11.3202946 C268.616438,9.77343155 273.215798,9 277.723537,9 C279.262765,9 280.801993,9.08839218 282.304572,9.28727457 Z" id="Scissors" stroke="#000000" stroke-width="17"></path>
    </g>
</svg>